Coordinates
version=1
nRows=18
nColumns=22
inDegrees=yes

Units are S.I. units (second, meters, Newtons, ...)
If the header above contains a line with 'inDegrees', this indicates whether rotational values are in degrees (yes) or radians (no).

endheader
time	pelvis_tilt	pelvis_list	pelvis_rotation	pelvis_tx	pelvis_ty	pelvis_tz	hip_flexion_r	hip_adduction_r	hip_rotation_r	knee_angle_r	ankle_angle_r	subtalar_angle_r	hip_flexion_l	hip_adduction_l	hip_rotation_l	knee_angle_l	ankle_angle_l	subtalar_angle_l	lumbar_extension	lumbar_bending	lumbar_rotation
      2.42000000	      1.47155704	     -6.71615127	     18.36546124	     -0.23009678	      0.93658616	      0.31799011	     20.43833131	      7.74071917	      2.65027116	    -25.66127558	      7.11015443	      2.35884616	     13.01835070	     -5.34959566	     -1.73812285	    -64.62979994	     -2.55220445	      3.67677739	     -7.65811634	      8.19464005	      0.67177496
      2.43000000	      1.64422183	     -6.73532867	     18.58398204	     -0.22173265	      0.93793783	      0.31619110	     19.49435672	      7.83767669	      2.47097702	    -25.30173753	      7.45488600	      2.19395994	     14.64639376	     -6.06678958	     -2.62134486	    -66.49663360	     -2.06218508	      2.53328062	     -7.88948495	      8.17406423	      1.27917943
      2.44000000	      1.78921036	     -6.69392663	     18.77332084	     -0.21344840	      0.93932489	      0.31428641	     18.55957237	      7.87504274	      2.35760533	    -24.94822041	      7.79981099	      2.04632027	     16.20822651	     -6.66847666	     -3.45069467	    -68.05896288	     -1.46117546	      1.36827391	     -8.10336522	      8.08125325	      1.89453990
      2.45000000	      1.90281636	     -6.60322742	     18.94161135	     -0.20522828	      0.94073593	      0.31223323	     17.63321111	      7.85194944	      2.28162842	    -24.58673721	      8.13154728	      1.92941034	     17.70454940	     -7.15480035	     -4.22627156	    -69.30885781	     -0.82131714	      0.28269105	     -8.28713213	      7.93357722	      2.51134063
      2.46000000	      1.99261696	     -6.47211670	     19.10451321	     -0.19710221	      0.94215778	      0.31000296	     16.70962125	      7.77273459	      2.23306450	    -24.21301159	      8.44659879	      1.85559181	     19.13169384	     -7.52390567	     -4.93152901	    -70.24837149	     -0.16496324	     -0.60211585	     -8.45123474	      7.74981447	      3.12474988
      2.47000000	      2.06199303	     -6.29029423	     19.28611259	     -0.18901691	      0.94357365	      0.30756031	     15.77248869	      7.61603042	      2.14592782	    -23.81805873	      8.81243024	      1.78693190	     20.47547629	     -7.76043905	     -5.56245332	    -70.87507930	      0.40792157	     -1.44754362	     -8.58666588	      7.51580016	      3.67905598
      2.48000000	      2.12280628	     -6.08462984	     19.49509716	     -0.18101251	      0.94497000	      0.30491914	     14.81818465	      7.41169225	      2.01115551	    -23.39039449	      9.17571364	      1.74828131	     21.73763856	     -7.90649751	     -6.12305161	    -71.20080080	      0.94898952	     -2.06617648	     -8.71174091	      7.26860365	      4.18563410
      2.49000000	      2.18089369	     -5.86649177	     19.74312124	     -0.17306903	      0.94631997	      0.30207129	     13.83366242	      7.17490037	      1.82562381	    -22.91510934	      9.56108265	      1.72893405	     22.91921545	     -7.97806445	     -6.61074684	    -71.24159055	      1.41825398	     -2.53362410	     -8.82362358	      7.02321014	      4.62725038
      2.50000000	      2.19322285	     -5.68037707	     20.03134776	     -0.16523352	      0.94749084	      0.29908497	     12.89592313	      6.94299426	      1.60175847	    -22.41353065	      9.95477862	      1.71776111	     24.09831815	     -8.00859974	     -7.00756212	    -71.03339532	      1.88878102	     -2.71879526	     -8.86998256	      6.80355311	      5.02717458
      2.51000000	      2.27718613	     -5.45480866	     20.35224070	     -0.15741171	      0.94872048	      0.29592420	     11.84994743	      6.68025410	      1.27621423	    -21.87866375	     10.33324799	      1.72809236	     25.07693585	     -8.00112331	     -7.39631631	    -70.52797334	      2.31067204	     -2.94115664	     -9.00454768	      6.57466648	      5.39887890
      2.52000000	      2.31893185	     -5.27443515	     20.70963801	     -0.14968062	      0.94973030	      0.29266954	     10.85110626	      6.44965284	      0.94997597	    -21.31878058	     10.72067425	      1.74160212	     26.04980288	     -7.99457069	     -7.72661566	    -69.79935561	      2.71881403	     -3.02437858	     -9.07703898	      6.38264627	      5.72090440
      2.53000000	      2.36478866	     -5.11006464	     21.09482264	     -0.14203490	      0.95060675	      0.28932043	      9.85347896	      6.23494507	      0.57976428	    -20.75283933	     11.09550461	      1.76343387	     26.93956561	     -7.98454473	     -8.02602721	    -68.83725039	      3.11752176	     -3.01793843	     -9.15816863	      6.21320604	      6.01562802
      2.54000000	      2.40521410	     -4.97151179	     21.50370290	     -0.13445289	      0.95130799	      0.28589633	      8.87804538	      6.04784857	      0.18404695	    -20.19724878	     11.46608116	      1.78870990	     27.75901046	     -7.98960615	     -8.31290094	    -67.66039813	      3.51795480	     -2.95391150	     -9.22852974	      6.06864862	      6.28525036
      2.55000000	      2.42728027	     -4.86751769	     21.92031053	     -0.12695911	      0.95179550	      0.28242612	      7.95952279	      5.89351319	     -0.23360558	    -19.68007011	     11.83688915	      1.80387989	     28.52514493	     -8.01753462	     -8.59974284	    -66.28307581	      3.91848224	     -2.88644554	     -9.27912157	      5.95340813	      6.53494805
      2.56000000	      2.45673797	     -4.78132529	     22.34207057	     -0.11953059	      0.95213594	      0.27891064	      7.05083404	      5.77061218	     -0.63919059	    -19.17640129	     12.19121414	      1.82124432	     29.19669306	     -8.05574228	     -8.88573181	    -64.70449921	      4.29596835	     -2.80246739	     -9.34094331	      5.85415894	      6.77707513
      2.57000000	      2.47333274	     -4.72519730	     22.75722167	     -0.11216510	      0.95226975	      0.27535220	      6.20139207	      5.67929706	     -1.05931787	    -18.72916410	     12.54792457	      1.82448313	     29.80075357	     -8.11947090	     -9.19898380	    -62.94501426	      4.65661691	     -2.75337990	     -9.38478301	      5.78041092	      7.00992077
      2.58000000	      2.47867235	     -4.69668637	     23.16224606	     -0.10486501	      0.95219686	      0.27175339	      5.41934125	      5.61383563	     -1.51335735	    -18.35476275	     12.91842952	      1.80904204	     30.33665182	     -8.20131172	     -9.53612073	    -61.01758348	      4.99557974	     -2.74051619	     -9.41400068	      5.72653269	      7.24038828
      2.59000000	      2.49588514	     -4.67808319	     23.55963710	     -0.09761062	      0.95199030	      0.26809408	      4.64319815	      5.57250675	     -1.93308857	    -18.00195574	     13.28378145	      1.79553894	     30.76738589	     -8.28331378	     -9.89099190	    -58.92163844	      5.28222153	     -2.72904484	     -9.45597309	      5.68316561	      7.45764308
